<?xml version="1.0"?>
<svg xmlns="http://www.w3.org/2000/svg" viewBox="0 0 512 512" width="512px" height="512px" class=""><g><g id="Outline"><path d="M360,280a8,8,0,0,0-3.884-6.86l-36.271-21.762-7.318-212.2A23.907,23.907,0,0,0,288.542,16H223.458a23.907,23.907,0,0,0-23.985,23.173l-7.318,212.205L155.884,273.14A8,8,0,0,0,152,280v52.67a397.408,397.408,0,0,0,28.549,148.244A23.886,23.886,0,0,0,202.833,496H309.167a23.886,23.886,0,0,0,22.284-15.086A397.408,397.408,0,0,0,360,332.67ZM223.458,32h65.084a7.969,7.969,0,0,1,8,7.725L303.719,248H208.281l7.182-208.276A7.969,7.969,0,0,1,223.458,32Zm85.709,448H202.833a7.963,7.963,0,0,1-7.429-5.029q-3.3-8.259-6.206-16.624A63.481,63.481,0,0,0,215.36,464h81.28a63.465,63.465,0,0,0,26.162-5.653q-2.909,8.363-6.206,16.624A7.963,7.963,0,0,1,309.167,480ZM344,332.67a381.448,381.448,0,0,1-14.2,103.323l-8.743,5.246A47.483,47.483,0,0,1,296.64,448H215.36a47.479,47.479,0,0,1-24.414-6.76l-8.745-5.247A381.448,381.448,0,0,1,168,332.67V284.529L202.216,264H309.784L344,284.529Z" data-original="#000000" class="" data-old_color="#000000" fill="#FF5824"/><path d="M107.4,474.971q-3.3-8.259-6.206-16.624A63.481,63.481,0,0,0,127.36,464H152V448H127.36a47.479,47.479,0,0,1-24.414-6.76L94.2,435.993A381.448,381.448,0,0,1,80,332.67V284.529L114.216,264H152V248H120.281l7.182-208.276a7.969,7.969,0,0,1,8-7.724H184V16H135.458a23.907,23.907,0,0,0-23.985,23.173l-7.318,212.205L67.884,273.14A8,8,0,0,0,64,280v52.67A397.408,397.408,0,0,0,92.549,480.914,23.886,23.886,0,0,0,114.833,496H168V480H114.833A7.963,7.963,0,0,1,107.4,474.971Z" data-original="#000000" class="" data-old_color="#000000" fill="#FF5824"/><path d="M444.116,273.14l-36.271-21.762-7.318-212.2A23.907,23.907,0,0,0,376.542,16H328V32h48.542a7.969,7.969,0,0,1,8,7.725L391.719,248H360v16h37.784L432,284.529V332.67a381.448,381.448,0,0,1-14.2,103.323l-8.743,5.246A47.483,47.483,0,0,1,384.64,448H360v16h24.64a63.465,63.465,0,0,0,26.162-5.653q-2.909,8.363-6.206,16.624A7.963,7.963,0,0,1,397.167,480H344v16h53.167a23.886,23.886,0,0,0,22.284-15.086A397.408,397.408,0,0,0,448,332.67V280A8,8,0,0,0,444.116,273.14Z" data-original="#000000" class="" data-old_color="#000000" fill="#e554f8"/><rect x="248" y="296" width="16" height="16" data-original="#000000" class="" data-old_color="#000000" fill="#FF5824"/><rect x="232" y="328" width="48" height="16" data-original="#000000" class="" data-old_color="#000000" fill="#FF5824"/></g></g> </svg>
